<?xml version="1.0" standalone="no"?>
<!DOCTYPE svg PUBLIC "-//W3C//DTD SVG 20010904//EN"
 "http://www.w3.org/TR/2001/REC-SVG-20010904/DTD/svg10.dtd">
<svg version="1.0" xmlns="http://www.w3.org/2000/svg"
 width="96.000000pt" height="96.000000pt" viewBox="0 0 96.000000 96.000000"
 preserveAspectRatio="xMidYMid meet">

<g transform="translate(0.000000,96.000000) scale(0.100000,-0.100000)"
fill="#ff0000" stroke="none">
<path d="M210 827 c-49 -16 -123 -93 -138 -143 -33 -111 -12 -146 218 -378
l189 -191 176 175 c185 184 230 240 241 299 9 45 -10 116 -42 158 -77 101
-200 119 -318 48 l-57 -34 -47 30 c-77 48 -146 60 -222 36z m150 -68 c25 -11
62 -37 83 -57 l37 -36 38 36 c43 43 114 77 157 78 54 0 117 -40 143 -90 46
-91 33 -114 -173 -320 l-165 -165 -165 165 c-206 206 -219 229 -172 320 16 33
34 51 67 68 55 27 92 28 150 1z" />
<path d="M480 556 c0 -70 -2 -76 -20 -76 -29 0 -70 -44 -70 -75 0 -33 42 -75
75 -75 14 0 37 11 50 25 23 22 25 32 25 110 l0 85 25 -6 c18 -5 25 -2 25 9 0
8 3 22 6 30 4 10 -7 17 -39 25 -25 7 -52 14 -61 18 -14 5 -16 -4 -16 -70z"/>
</g>
</svg>
